<?xml version="1.0" encoding="UTF-8"?> <svg xmlns="http://www.w3.org/2000/svg" id="Ebene_1" data-name="Ebene 1" version="1.1" viewBox="0 0 426 119.8"><defs><style> .cls-1 { fill: #4d5858; } .cls-1, .cls-2 { stroke-width: 0px; } .cls-2 { fill: #00833e; } </style></defs><polygon class="cls-2" points="185.5 115.8 185.5 106.2 173.8 106.2 173.8 115.8 169.3 115.8 169.3 92.1 173.8 92.1 173.8 102.1 185.5 102.1 185.5 92.1 189.9 92.1 189.9 115.8 185.5 115.8"></polygon><path class="cls-2" d="M212.7,111.3h-12.4l-2,4.5h-4.9l10.7-23.8h4.9l10.7,23.8h-4.9l-2-4.5ZM206.5,97l-4.4,10.1h8.8l-4.4-10.1Z"></path><g><path class="cls-2" d="M242.4,92.1v13.6c0,7-4.3,10.6-10.3,10.6s-10.6-3.5-10.6-10.6v-13.6h4.4v13.6c0,4.3,2.4,6.5,6.1,6.5s5.8-2.5,5.8-6.5v-13.6h4.4Z"></path><path class="cls-2" d="M263.1,97.8c-.8-1.4-3.1-2.6-5.6-2.6s-4.9,1.4-4.9,3.2,2.4,2.6,5.3,3c5,.6,9.6,1.9,9.6,7.6s-4.7,7.6-10,7.6-8.6-1.5-10.3-5.8l3.7-1.9c1.1,2.6,3.8,3.8,6.7,3.8s5.5-1,5.5-3.6-2.3-3.2-5.5-3.5c-4.9-.6-9.3-1.9-9.3-7.2s4.8-6.9,9.2-6.9c3.7,0,7.5,1.1,9.3,4.7l-3.6,1.8Z"></path></g><polygon class="cls-2" points="278.7 96.1 271.2 96.1 271.2 92 290.7 92 290.7 96.1 283.2 96.1 283.2 115.8 278.7 115.8 278.7 96.1"></polygon><polygon class="cls-2" points="312.9 115.8 295.1 115.8 295.1 92 312.9 92 312.9 96.4 299.5 96.4 299.5 101.8 312.4 101.8 312.4 106 299.5 106 299.5 111.4 312.9 111.4 312.9 115.8"></polygon><path class="cls-2" d="M339,112.8c-2.4,2.4-5.6,3.5-9,3.5-8.8,0-12.6-6.1-12.6-12.2,0-6.2,4-12.5,12.6-12.5s6.3,1.2,8.7,3.6l-3,2.9c-1.6-1.5-3.7-2.2-5.7-2.2-5.7,0-8.2,4.3-8.2,8.2,0,3.9,2.3,8,8.2,8s4.4-.8,6-2.4l3.1,3.1Z"></path><polygon class="cls-2" points="359.4 115.8 359.4 106.2 347.7 106.2 347.7 115.8 343.2 115.8 343.2 92.1 347.7 92.1 347.7 102.1 359.4 102.1 359.4 92.1 363.8 92.1 363.8 115.8 359.4 115.8"></polygon><polygon class="cls-2" points="385.4 92 389.8 92 389.8 115.8 387.1 115.8 387.1 115.8 374.6 99.8 374.6 115.8 370.1 115.8 370.1 92 373.7 92 385.4 106.8 385.4 92"></polygon><rect class="cls-2" x="395.7" y="92" width="4.4" height="23.7"></rect><polygon class="cls-2" points="419.5 92 410.5 102.1 410.5 92 406 92 406 115.8 410.5 115.8 410.5 105.3 420.5 115.8 426 115.8 426 115.5 414.6 103.5 425.1 92.2 425.1 92 419.5 92"></polygon><path class="cls-1" d="M34.1,55.4c-4.8-.6-8.8-1.5-8.8-5s2.7-5.3,8.2-5.3,8,2.2,9.4,4.4l5.9-3.1c-3-6.1-9.4-7.9-15.6-7.9-7.3,0-15.3,3.4-15.3,11.5s7.5,11,15.6,12c5.3.6,9.2,2.1,9.2,5.9s-4.4,5.9-9.1,5.9-9.4-1.9-11.1-6.3l-6.2,3.2c2.9,7.3,9.2,9.8,17.3,9.8s16.6-3.8,16.6-12.6-7.7-11.6-16-12.6"></path><polygon class="cls-1" points="56.3 40 56.3 46.8 68.9 46.8 68.9 79.6 76.4 79.6 76.4 46.8 88.9 46.8 88.9 40 56.3 40"></polygon><path class="cls-1" d="M254,65.6c7.5-1.5,10-7,10-12.4s-4.9-13.1-14.3-13.1c-6.3,0-12.6,0-18.8,0v39.7h7.5v-13.2h7.2l11.5,13.2h8.9v-.5l-12-13.6ZM238.4,59.6v-12.7h11.4c4.7,0,6.8,3.2,6.8,6.3s-2,6.3-6.8,6.3h-11.4Z"></path><polygon class="cls-1" points="271.3 40 271.3 46.8 283.9 46.8 283.9 79.6 291.4 79.6 291.4 46.8 303.9 46.8 303.9 40 271.3 40"></polygon><path class="cls-1" d="M379.2,69.5c-2.6,2.6-6.5,4-10,4-9.8,0-13.6-6.9-13.6-13.4,0-6.6,4.1-13.7,13.6-13.7s7,1.2,9.6,3.7l5-4.8c-4.1-4-9.2-6.1-14.5-6.1-14.3,0-21,10.5-21,20.9,0,10.3,6.3,20.5,21,20.5s11-1.9,15.1-5.9l-5.1-5.2Z"></path><polygon class="cls-1" points="418.3 40.1 418.3 56.7 398.9 56.7 398.9 40.1 391.4 40.1 391.4 79.7 398.9 79.7 398.9 63.6 418.3 63.6 418.3 79.7 425.7 79.7 425.7 40.1 418.3 40.1"></polygon><polygon class="cls-1" points="103.6 63.3 125 63.3 125 56.4 103.3 56.4 98.2 61.4 96.2 63.5 96.2 63.6 96.2 79.6 125.8 79.6 125.8 72.3 103.6 72.3 103.6 63.3"></polygon><polygon class="cls-2" points="96.2 40 96.2 54.8 103.6 47.2 125.8 47.2 125.8 40 96.2 40"></polygon><polygon class="cls-1" points="200 63.4 221.5 63.4 221.5 56.4 199.8 56.4 194.7 61.5 192.6 63.6 192.6 63.7 192.6 79.7 222.3 79.7 222.3 72.3 200 72.3 200 63.4"></polygon><polygon class="cls-2" points="192.6 40.1 192.6 54.9 200 47.3 222.3 47.3 222.3 40.1 192.6 40.1"></polygon><polygon class="cls-1" points="318.7 63.1 340.1 63.1 340.1 56.2 318.5 56.2 313.3 61.3 311.3 63.3 311.3 63.4 311.3 79.5 340.9 79.5 340.9 72.1 318.7 72.1 318.7 63.1"></polygon><polygon class="cls-2" points="311.3 39.8 311.3 54.6 318.7 47.1 340.9 47.1 340.9 39.8 311.3 39.8"></polygon><polygon class="cls-1" points="0 0 0 119.8 159.5 119.8 159.5 86.9 151.6 86.9 151.6 111.8 7.9 111.8 7.9 7.9 151.6 7.9 151.6 32.9 159.5 32.9 159.5 0 0 0"></polygon><g><path class="cls-2" d="M141.9,48.6v-8.6h-7.4v3.6c2.6,1.4,5.1,3.1,7.4,5"></path><path class="cls-1" d="M134.5,50.4v29.2h7.4v-22.8c-2.1-2.5-4.7-4.6-7.4-6.4"></path><path class="cls-1" d="M174.9,65.6c7.5-1.5,10-7,10-12.4s-4.9-13.1-14.3-13.1c-6.3,0-12.6,0-18.8,0v39.7h7.5v-13.2h7.2l11.5,13.2h8.9v-.5l-12-13.6ZM159.2,59.6v-12.7h11.4c4.7,0,6.8,3.2,6.8,6.3s-2,6.3-6.8,6.3h-11.4Z"></path></g></svg> 